<svg xml:space="preserve" viewBox="0 0 1238 228" data-rw-cid-ds5v6spp="true">
  <linearGradient id="a" x1="145.2" x2="195.8" y1="137.1" y2="240.8" gradientUnits="userSpaceOnUse">
    <stop offset="0" stop-color="#6332ff"></stop>
    <stop offset="1" stop-color="#a37eff"></stop>
  </linearGradient>
  <path fill="url(#a)" fill-rule="evenodd" d="M228 228h-76l-38-76h76z" clip-rule="evenodd"></path>
  <linearGradient id="b" x1="15.4" x2="211.4" y1="36.2" y2="115.4" gradientUnits="userSpaceOnUse">
    <stop offset="0" stop-color="#ccb3ff"></stop>
    <stop offset=".2" stop-color="#c9afff"></stop>
    <stop offset=".5" stop-color="#c1a2ff"></stop>
    <stop offset=".7" stop-color="#b28eff"></stop>
    <stop offset="1" stop-color="#9f71ff"></stop>
    <stop offset="1" stop-color="#9e70ff"></stop>
  </linearGradient>
  <path fill="url(#b)" fill-rule="evenodd" d="M76 76H0l38 76h76L76 76zm152 0h-76L114 0h76l38 76zM114 0H38l38 76h76L114 0z" clip-rule="evenodd"></path>
  <linearGradient id="c" x1="152.5" x2="188.8" y1="76" y2="150.5" gradientUnits="userSpaceOnUse">
    <stop offset="0" stop-color="#6332ff"></stop>
    <stop offset="1" stop-color="#a37eff"></stop>
  </linearGradient>
  <path fill="url(#c)" fill-rule="evenodd" d="M228 76h-76l-38 76h76z" clip-rule="evenodd"></path>
  <path d="M410.9 121.8a47.6 47.6 0 0 0 15.8-36.6c0-10.5-2.3-19.7-6.8-27.6a45.7 45.7 0 0 0-20-18.3 72.7 72.7 0 0 0-32.2-6.5H300v160h37.9v-57.2h22.2l27.1 57.2H430l-32-62.6c4.2-1.7 8.5-4.5 12.9-8.4zM380 102.6a28.2 28.2 0 0 1-18.3 5.7H338V61.7h24c7.1 0 13.1 2 17.8 6.1 4.8 4.1 7.2 10 7.2 17.7 0 7.6-2.4 13.3-7 17.1zm143.9 37.8c0 4.9-1 9.1-3.1 12.7-2 3.5-4.7 6.2-8 8a22.3 22.3 0 0 1-10.8 2.8c-3.1 0-6.2-.6-9.2-1.8-3-1.2-5.5-3.4-7.5-6.7-2-3.2-2.9-7.9-2.9-13.9V67.7H445v83.4c0 10 1.7 18.2 5.2 24.7a32.8 32.8 0 0 0 14.5 14.3 48.3 48.3 0 0 0 21.8 4.6A41 41 0 0 0 505 191c5-2.5 9-5.4 12-9 3-3.5 5-6.9 6.1-10.2h1.9v21h36.3V67.7H524v72.7zM660 65.8a42 42 0 0 0-19.3 3.9 36.3 36.3 0 0 0-17.5 19.7h-1.9V67.7H585v125.2h37.5v-69.1c0-5.6.9-10.4 2.8-14.5 1.8-4 4.4-7.1 7.7-9.3 3.3-2.1 7.1-3.2 11.4-3.2 3.4 0 6.5.7 9.5 2.2 3 1.4 5.4 3.8 7.3 7.2 1.9 3.4 2.8 8 2.8 13.9v72.8h37.5v-82.7c0-14.8-3.8-25.9-11.3-33.3A41.3 41.3 0 0 0 660 65.8zm185.4 90.3h-1.6l-21.1-88.4h-35l-20.6 88.4h-1.6l-15.7-88.4h-38.6l32.5 125.1h39.7l21.1-84.6h1.2l21.5 84.6h39.3l32.1-125.1h-37.3zM986.6 70a82.4 82.4 0 0 0-27.1-4.2c-9.6 0-17.8 1.1-24.4 3.3-6.7 2.2-12 5.2-16.1 9-4.1 3.8-7.1 8-9 12.8-2 4.7-3.1 9.6-3.3 14.6h35.1c.3-2.4 1.2-4.6 2.5-6.4 1.4-1.9 3.3-3.3 5.7-4.4 2.4-1.1 5.4-1.6 8.9-1.6 5.3 0 9.5 1.3 12.7 3.9 3.1 2.6 4.7 6.4 4.7 11.5v10.4h-29.2c-14.6 0-25.7 3.4-33.4 10.3a34.9 34.9 0 0 0-11.6 27.4c0 12 3.9 21.3 11.6 28.1a43.5 43.5 0 0 0 29.9 10.1c6.2 0 11.4-.8 15.8-2.5a32.2 32.2 0 0 0 17-14.7h1.8V193h35.1v-83.2a42 42 0 0 0-7.2-25.8 40.2 40.2 0 0 0-19.5-14zm-10.3 81.6a14 14 0 0 1-2.8 8.8 19.7 19.7 0 0 1-7.3 6 23 23 0 0 1-9.8 2.2 21 21 0 0 1-12.2-3.7c-3.6-2.5-5.3-6.2-5.3-11.2 0-4.2 1.5-7.7 4.6-10.3 3.1-2.7 7.5-4 13.4-4h19.4v12.2zm129.4-85.7c-6 0-11.1 1.2-15.3 3.6a30.3 30.3 0 0 0-14.4 17.9h-1.8V67.7h-37.5v125.2h38.5V125c0-5.5 1-10.4 2.9-14.6 2-4.2 5-7.4 9.2-9.7 4.1-2.3 9.4-3.5 15.8-3.5a68 68 0 0 1 13.8 1.5V66.9a19 19 0 0 0-4.6-.8l-6.6-.2zM1238 138v-13.8c0-12.2-2.4-22.7-7.3-31.5a50.4 50.4 0 0 0-20.2-20.2c-8.6-4.7-18.6-7-29.9-7a65.1 65.1 0 0 0-29.1 6.5 49.5 49.5 0 0 0-21 19.6 62.7 62.7 0 0 0-7.8 32.6v12a65 65 0 0 0 7.5 32.6c5 8.8 11.9 15.4 20.9 19.8 9 4.4 19.4 6.6 31.2 6.6 9.6 0 17.9-1.3 24.7-3.9 6.8-2.6 12.5-6 16.8-10.2a43 43 0 0 0 13.4-26.9h-34.3c-.3 2.6-1.4 4.9-3.3 6.9s-4.3 3.6-7.3 4.7-6.4 1.7-10.2 1.7c-6.7 0-12.2-2.2-16.5-6.5a23.5 23.5 0 0 1-6.5-17.3V138h78.9zm-78.9-21.4v-.4c0-4.8.9-8.9 2.8-12.5 1.8-3.6 4.4-6.4 7.6-8.4 3.2-2 7-3 11.3-3 4.3 0 8.1 1 11.3 3 3.2 2 5.7 4.8 7.5 8.4 1.8 3.6 2.6 7.8 2.6 12.5v.8h-43.1v-.4z"></path>
</svg>